<?xml version="1.0" standalone="no"?>
<!DOCTYPE svg PUBLIC "-//W3C//DTD SVG 20010904//EN"
 "http://www.w3.org/TR/2001/REC-SVG-20010904/DTD/svg10.dtd">
<svg version="1.0" xmlns="http://www.w3.org/2000/svg"
 width="150.000000pt" height="150.000000pt" viewBox="0 0 150.000000 150.000000"
 preserveAspectRatio="xMidYMid meet">

<g transform="translate(0.000000,150.000000) scale(0.100000,-0.100000)"
fill="#000000" stroke="none">
<path d="M430 917 c-14 -7 -33 -28 -42 -47 l-18 -35 125 -3 125 -3 0 -259 0
-260 55 0 55 0 0 260 0 261 292 -1 c268 -1 294 0 305 16 19 26 16 62 -6 74
-30 16 -859 13 -891 -3z"/>
<path d="M613 195 c0 -14 3 -25 8 -25 5 0 9 11 9 25 0 14 -4 25 -9 25 -5 0 -8
-11 -8 -25z"/>
<path d="M691 204 c-1 -12 5 -21 14 -21 9 0 15 9 15 21 0 16 -2 18 -9 7 -7
-11 -9 -11 -14 0 -3 9 -6 6 -6 -7z"/>
<path d="M737 206 c-8 -21 16 -39 31 -24 8 8 9 15 1 25 -15 17 -25 17 -32 -1z
m27 -17 c-3 -5 -10 -7 -15 -3 -5 3 -7 10 -3 15 3 5 10 7 15 3 5 -3 7 -10 3
-15z"/>
<path d="M810 211 c0 -7 -4 -9 -10 -6 -5 3 -10 2 -10 -4 0 -5 5 -13 10 -16 11
-7 26 22 16 32 -3 4 -6 1 -6 -6z"/>
<path d="M836 204 c-9 -22 -8 -24 9 -24 8 0 15 6 15 14 0 22 -17 28 -24 10z"/>
<path d="M875 210 c3 -5 10 -10 16 -10 5 0 9 5 9 10 0 6 -7 10 -16 10 -8 0
-12 -4 -9 -10z"/>
<path d="M920 195 c0 -14 5 -25 10 -25 6 0 10 11 10 25 0 14 -4 25 -10 25 -5
0 -10 -11 -10 -25z"/>
<path d="M953 204 c-8 -21 13 -42 28 -27 13 13 5 43 -11 43 -6 0 -13 -7 -17
-16z m27 -10 c0 -8 -4 -12 -10 -9 -5 3 -10 10 -10 16 0 5 5 9 10 9 6 0 10 -7
10 -16z"/>
<path d="M1030 209 c0 -5 -4 -7 -10 -4 -5 3 -10 0 -10 -8 0 -7 7 -14 15 -14 8
0 15 9 15 19 0 10 -2 18 -5 18 -3 0 -5 -5 -5 -11z"/>
<path d="M1077 200 c3 -11 7 -20 8 -20 1 0 5 9 8 20 3 12 0 20 -8 20 -8 0 -11
-8 -8 -20z"/>
<path d="M1113 204 c-7 -18 17 -38 31 -24 11 11 1 40 -14 40 -6 0 -13 -7 -17
-16z m27 -10 c0 -8 -4 -12 -10 -9 -5 3 -10 10 -10 16 0 5 5 9 10 9 6 0 10 -7
10 -16z"/>
<path d="M1190 213 c0 -5 5 -15 10 -23 8 -12 10 -11 10 8 0 12 -4 22 -10 22
-5 0 -10 -3 -10 -7z"/>
<path d="M1231 204 c-1 -12 5 -21 14 -21 9 0 15 9 15 21 0 16 -2 18 -9 7 -7
-11 -9 -11 -14 0 -3 9 -6 6 -6 -7z"/>
<path d="M1277 213 c-13 -12 -7 -33 8 -33 8 0 15 9 15 20 0 20 -11 26 -23 13z"/>
<path d="M1322 195 c0 -16 2 -22 5 -12 2 9 2 23 0 30 -3 6 -5 -1 -5 -18z"/>
<path d="M1357 202 c1 -8 3 -16 3 -18 0 -14 19 0 23 17 4 16 3 18 -8 9 -7 -6
-15 -7 -17 -3 -3 4 -3 2 -1 -5z"/>
<path d="M1400 195 c0 -14 4 -25 8 -25 4 0 8 11 8 25 0 14 -4 25 -8 25 -4 0
-8 -11 -8 -25z"/>
<path d="M644 198 c-3 -4 -3 -8 0 -8 2 0 11 -3 20 -6 10 -4 16 -1 16 8 0 16
-27 20 -36 6z"/>
</g>
</svg>
